<?xml version="1.0" encoding="UTF-8" standalone="no"?>
<svg
   width="20.9mm"
   height="17.9mm"
   version="1.1"
   viewBox="0 0 20.9 17.9"
   id="svg20"
   sodipodi:docname="redhat-suse.svg"
   inkscape:export-xdpi="513.66998"
   inkscape:export-ydpi="513.66998"
   inkscape:version="1.2.2 (b0a8486541, 2022-12-01)"
   xmlns:inkscape="http://www.inkscape.org/namespaces/inkscape"
   xmlns:sodipodi="http://sodipodi.sourceforge.net/DTD/sodipodi-0.dtd"
   xmlns="http://www.w3.org/2000/svg"
   xmlns:svg="http://www.w3.org/2000/svg"
   xmlns:rdf="http://www.w3.org/1999/02/22-rdf-syntax-ns#"
   xmlns:cc="http://creativecommons.org/ns#"
   xmlns:dc="http://purl.org/dc/elements/1.1/">
  <defs
     id="defs24" />
  <sodipodi:namedview
     pagecolor="#ffffff"
     bordercolor="#666666"
     borderopacity="1"
     objecttolerance="10"
     gridtolerance="10"
     guidetolerance="10"
     inkscape:pageopacity="0"
     inkscape:pageshadow="2"
     inkscape:window-width="3440"
     inkscape:window-height="1394"
     id="namedview22"
     showgrid="false"
     inkscape:zoom="8.1774913"
     inkscape:cx="37.419789"
     inkscape:cy="19.565903"
     inkscape:window-x="-6"
     inkscape:window-y="-6"
     inkscape:window-maximized="1"
     inkscape:current-layer="svg20"
     inkscape:document-rotation="0"
     inkscape:showpageshadow="2"
     inkscape:pagecheckerboard="0"
     inkscape:deskcolor="#d1d1d1"
     inkscape:document-units="mm" />
  <title
     id="title2">SUSE Software Solutions Germany GmbH logo</title>
  <desc
     id="desc4">An enterprise Linux vendor based in Nürnberg, Germany</desc>
  <metadata
     id="metadata6">
    <rdf:RDF>
      <cc:Work
         rdf:about="">
        <dc:format>image/svg+xml</dc:format>
        <dc:type
           rdf:resource="http://purl.org/dc/dcmitype/StillImage" />
        <dc:title>SUSE Software Solutions Germany GmbH logo</dc:title>
      </cc:Work>
    </rdf:RDF>
  </metadata>
  <path
     d="m 20,3.27 c 0,0.514 -0.416,0.93 -0.93,0.93 -0.514,0 -0.93,-0.416 -0.93,-0.93 0,-0.513 0.416,-0.93 0.93,-0.93 0.514,0 0.93,0.416 0.93,0.93 M 13.36,7.16 C 12.768,6.941 12.539,6.985 11.78,6.995 11.255,7.0021 11.237,6.9841 10.64,6.9841 c -0.185,0 -0.253,0.887 0.416,1.07 0.293,0.0804 0.61,0.131 0.83,0.357 0.0974,0.0995 0.152,0.25 -0.0734,0.25 h -1.66 c -0.291,0 -0.566,0.0067 -0.788,-0.181 -0.335,-0.284 -0.492,-0.674 -0.66,-1.06 -0.175,-0.403 -0.362,-0.799 -0.583,-1.18 -0.439,-0.754 -1.02,-1.44 -1.8,-1.85 -0.972,-0.521 -2.62,-0.78 -3.93,0.223 -1.38,1.06 -1.08,3.04 0.122,4 0.476,0.383 1.1,0.543 1.7,0.507 1.19,-0.0691 2.07,-0.947 1.85,-2.03 -0.073,-0.361 -0.284,-0.703 -0.601,-0.89 -0.226,-0.132 -0.494,-0.179 -0.755,-0.18 -0.281,-3.44e-4 -0.58,0.0575 -0.782,0.253 -0.239,0.232 -0.278,0.641 -0.0868,0.914 0.106,0.151 0.278,0.278 0.249,0.475 -0.0201,0.133 -0.13,0.232 -0.261,0.261 -0.223,0.0497 -0.428,-0.0773 -0.578,-0.233 -0.387,-0.399 -0.508,-1.03 -0.295,-1.55 0.278,-0.672 1.05,-1.04 1.78,-1.02 0.937,0.0314 1.82,0.65 2.2,1.51 0.385,0.855 0.27,1.91 -0.26,2.68 -1.18,1.72 -4.08,1.52 -5.43,0.0663 -0.847,-0.91 -1.31,-1.79 -1.24,-3.44 0.0452,-1.16 0.716,-2.31 1.57,-3.11 1.39,-1.31 3.23,-2.21 5.09,-2.6 1.13,-0.234 2.3,-0.289 3.45,-0.174 1.01,0.101 2.02,0.287 3,0.589 0.484,0.151 0.96,0.33 1.42,0.542 0.406,0.186 0.938,0.389 1.25,0.712 0,-0.583 -0.0229,-1.22 -0.0229,-1.67 0,-0.17 0.179,-0.285 0.332,-0.213 0.66,0.307 2.22,1.04 3.27,1.52 1.4,0.639 1.5,2.14 1.55,3.48 0.0011,0.0296 0.0021,0.0607 -0.0109,0.0871 -0.0437,0.0914 -0.279,0.0667 -0.366,0.0677 -0.167,0.00177 -0.419,7.14e-4 -0.586,0.00811 -0.334,0.0148 -0.659,0.00847 -0.992,-0.00811 -0.617,-0.03 -1.21,-0.305 -1.61,-0.639 -0.0399,-0.0332 -0.169,-0.0698 -0.229,-0.00706 -0.0632,0.0653 -0.042,0.167 -0.0074,0.202 0.229,0.231 0.477,0.381 0.766,0.53 0.367,0.188 0.767,0.236 1.17,0.26 0.435,0.0258 0.872,0.0194 1.31,-0.025 0.362,-0.037 0.455,-0.0621 0.0984,0.204 -0.314,0.233 -0.678,0.4 -1.05,0.525 -0.529,0.18 -1.09,0.27 -1.65,0.285 -0.338,0.00917 -0.677,-0.00882 -1.01,-0.0522 -0.173,-0.0219 -0.346,-0.0533 -0.52,-0.0709 -0.141,-0.0141 -0.288,-0.0406 -0.429,-0.0102 -0.127,0.0279 -0.246,0.097 -0.327,0.201 -0.11,0.144 -0.149,0.54 -0.0847,0.711 0.123,0.333 0.394,0.526 0.681,0.696 0.31,0.184 0.717,0.247 0.797,0.599 0.0166,0.0737 -0.642,0.0755 -0.717,0.0744 h -0.877 c 0,0 -0.477,0.0113 -0.662,-0.0561 -0.0063,-0.0018 -0.0109,-0.0046 -0.0166,-0.0074 -0.101,-0.0543 -0.145,-0.189 -0.179,-0.292 -0.0487,-0.144 -0.135,-0.288 -0.239,-0.438 -0.198,-0.282 -0.503,-0.592 -0.819,-0.709 m 6,-5.12 c -0.908,-0.213 -1.72,0.603 -1.51,1.51 0.108,0.463 0.476,0.83 0.938,0.939 0.908,0.213 1.73,-0.604 1.51,-1.51 -0.109,-0.463 -0.476,-0.83 -0.939,-0.938 m 0.44,1.16 c -0.132,-0.136 -0.349,-0.136 -0.481,0 -0.148,0.148 -0.131,0.403 0.0536,0.525 0.112,0.0744 0.262,0.0744 0.374,0 0.184,-0.122 0.201,-0.377 0.0536,-0.525"
     style="fill:#800000"
     id="path16" />
  <path
     style="fill:#000000;stroke-width:0.00836977"
     d="m 0.47515202,17.238904 c -0.0928795,-0.0225 -0.16118151,-0.07959 -0.19725883,-0.164705 l -0.0231808,-0.05473 v -1.756573 -1.756564 l 0.0177633,-0.08741 c 0.0523497,-0.257528 0.18350159,-0.391487 0.4426309,-0.452119 0.0706388,-0.01656 0.11105695,-0.01824 0.51354631,-0.02183 0.4699989,-0.0045 0.5753632,0.0011 0.7414808,0.0366 0.4905515,0.104995 0.7664245,0.395237 0.8432162,0.887247 0.017304,0.110923 0.017238,0.350879 -1.387e-4,0.46339 -0.019051,0.123348 -0.049103,0.229335 -0.093607,0.330127 -0.1054153,0.238703 -0.26255,0.406955 -0.5024889,0.538037 l -0.073661,0.04029 0.4376477,0.745198 c 0.2407067,0.409854 0.4488027,0.77075 0.4624345,0.80199 0.021043,0.04824 0.024759,0.06683 0.02458,0.122988 -1.757e-4,0.05652 -0.00392,0.07443 -0.025923,0.123134 -0.07815,0.173056 -0.2928842,0.264682 -0.4384101,0.187059 -0.023551,-0.01253 -0.062838,-0.04623 -0.089914,-0.077 -0.051454,-0.05854 -0.038235,-0.03493 -0.6714886,-1.197339 L 1.5150663,15.345865 H 1.195506 0.87594449 v 0.815275 c 0,0.706693 -0.001678,0.822217 -0.0123797,0.867369 -0.0202256,0.08507 -0.0637436,0.145487 -0.13191184,0.182995 -0.0702139,0.03861 -0.16726268,0.04902 -0.25651125,0.02731 z M 1.7496952,14.802355 c 0.1411394,-0.04175 0.2279009,-0.09615 0.3108813,-0.194927 0.055137,-0.0656 0.1044869,-0.167268 0.1272376,-0.26214 0.020629,-0.08608 0.021032,-0.333082 6.683e-4,-0.415104 -0.045668,-0.183946 -0.1536296,-0.314278 -0.3155857,-0.380987 -0.1107549,-0.04567 -0.186799,-0.05596 -0.4518573,-0.06178 -0.3522685,-0.0079 -0.45208443,0.0079 -0.50030614,0.07902 -0.0412012,0.06055 -0.0404066,0.04801 -0.0429922,0.676753 l -0.002464,0.58836 0.39911564,-0.0034 0.3991158,-0.0034 0.076146,-0.02262 z m 9.1561638,2.439448 c -0.09565,-0.0206 -0.183324,-0.09246 -0.220894,-0.181103 l -0.01747,-0.04118 v -1.926989 -1.926977 l 0.01747,-0.04118 c 0.062,-0.146339 0.231254,-0.220962 0.401764,-0.17713 0.06374,0.01634 0.09058,0.03156 0.135505,0.07667 0.04698,0.04724 0.07326,0.105664 0.08254,0.183375 0.0041,0.03469 0.0076,0.38842 0.0078,0.786321 l 2.48e-4,0.723202 0.859717,-0.0022 0.859717,-0.0022 0.004,-0.777792 c 0.0037,-0.70733 0.0053,-0.780745 0.01762,-0.810553 0.05914,-0.142296 0.215518,-0.215196 0.387341,-0.180565 0.109232,0.02205 0.191367,0.09582 0.220323,0.198061 0.01578,0.05563 0.016,0.08272 0.016,1.950996 0,1.868259 -2.25e-4,1.895346 -0.016,1.950998 -0.0387,0.136588 -0.171785,0.218969 -0.331121,0.204954 -0.110396,-0.01009 -0.189676,-0.05104 -0.24254,-0.126558 -0.05373,-0.07667 -0.05164,-0.03671 -0.05164,-0.982277 V 15.284822 H 12.174521 11.3128 l -2.48e-4,0.814929 c -1.36e-4,0.455029 -0.0036,0.8428 -0.0078,0.878036 -0.01294,0.108572 -0.06406,0.189341 -0.148295,0.234258 -0.06813,0.03637 -0.166124,0.04801 -0.250613,0.02977 z m 3.576465,-0.0034 c -0.10201,-0.02418 -0.182253,-0.09133 -0.211661,-0.176984 -0.01772,-0.05159 -0.02094,-0.138782 -0.0075,-0.202459 0.0086,-0.04051 1.10867,-3.411674 1.162396,-3.562041 0.05167,-0.14459 0.131947,-0.255088 0.221131,-0.30436 0.07795,-0.0431 0.126657,-0.05373 0.243206,-0.05305 0.09327,4.7e-4 0.116626,0.0034 0.169119,0.0225 0.11657,0.04209 0.194289,0.118691 0.255853,0.252179 0.04255,0.09223 1.167299,3.599952 1.178211,3.67444 0.0269,0.183533 -0.07781,0.322974 -0.266613,0.35502 -0.07235,0.01231 -0.154833,0.0056 -0.201028,-0.0169 -0.04599,-0.02216 -0.09831,-0.07421 -0.119525,-0.118893 -0.0092,-0.01959 -0.102031,-0.324607 -0.206118,-0.677881 L 16.510561,15.78764 h -0.640173 -0.640196 l -0.187357,0.629227 c -0.10304,0.346065 -0.196472,0.649675 -0.207612,0.674681 -0.05706,0.128093 -0.193241,0.184785 -0.352899,0.146919 z m 1.864508,-2.003247 c 0,-0.0034 -0.05933,-0.210875 -0.131832,-0.460995 -0.133278,-0.459742 -0.218755,-0.767985 -0.272731,-0.983473 -0.05523,-0.220503 -0.05153,-0.209746 -0.07209,-0.209746 -0.01653,0 -0.02054,0.0079 -0.03611,0.07208 -0.122696,0.505163 -0.148678,0.601624 -0.309412,1.148604 -0.06805,0.231595 -0.12373,0.425267 -0.12373,0.430405 0,0.0067 0.142845,0.0089 0.472945,0.0089 0.260119,0 0.472943,-0.0022 0.472943,-0.0067 z m 2.791458,2.006974 c -0.09565,-0.0206 -0.183323,-0.09246 -0.220893,-0.181103 l -0.01748,-0.0412 -0.0021,-1.732543 -0.0021,-1.732531 h -0.475933 c -0.550009,0 -0.532237,0.0022 -0.603468,-0.075 -0.03444,-0.03728 -0.04451,-0.05574 -0.05913,-0.108237 -0.04125,-0.148061 0.0085,-0.296794 0.119066,-0.355994 l 0.04572,-0.02452 h 1.298592 1.298591 l 0.04601,0.02462 c 0.09072,0.04858 0.138654,0.147356 0.132687,0.273456 -0.0041,0.08832 -0.03088,0.153064 -0.08411,0.204149 -0.06468,0.06212 -0.05857,0.06145 -0.593019,0.06145 h -0.475497 l -2.49e-4,1.680104 c -1.43e-4,0.993905 -0.0034,1.705881 -0.0078,1.74321 -0.01294,0.108572 -0.06407,0.18934 -0.148296,0.234258 -0.06813,0.03638 -0.166125,0.04801 -0.250613,0.02978 z M 7.3657765,17.23323 C 7.1807875,17.20984 7.048578,17.14973 6.960292,17.04877 6.886787,16.96471 6.8415911,16.837669 6.8247246,16.667568 c -0.012504,-0.126079 -0.012504,-3.023701 0,-3.149779 0.017561,-0.177141 0.063454,-0.30135 0.1441199,-0.390122 0.08791,-0.09671 0.2244491,-0.154485 0.4160999,-0.175998 0.1407566,-0.01579 0.9693874,-0.0067 1.0833221,0.01153 0.5462645,0.08876 0.9104015,0.315419 1.1689652,0.727512 0.1689061,0.269203 0.2728641,0.617551 0.314061,1.052367 0.012567,0.132671 0.012588,0.50288 0,0.628376 -0.069812,0.697795 -0.3305378,1.21978 -0.7707984,1.54319 -0.2428748,0.178406 -0.5213243,0.283016 -0.8485419,0.318767 -0.096081,0.01009 -0.8829055,0.01009 -0.9662105,-2.13e-4 z m 1.038795,-0.583782 c 0.51888,-0.125833 0.8335175,-0.566367 0.9080014,-1.271303 0.01482,-0.140203 0.017035,-0.459954 0.00414,-0.600068 -0.039679,-0.43224 -0.1574947,-0.743461 -0.3627598,-0.9583 -0.1474286,-0.154307 -0.317755,-0.243425 -0.5510965,-0.288331 -0.073247,-0.01411 -0.129002,-0.01623 -0.4327778,-0.01623 -0.3158029,0 -0.3526175,0.0012 -0.3902788,0.01578 -0.047939,0.01824 -0.091055,0.06481 -0.1077551,0.116318 -0.016365,0.05048 -0.016365,2.840069 0,2.890572 0.022587,0.06973 0.077109,0.113922 0.1613575,0.130824 0.010969,0.0022 0.1715414,0.0034 0.3567108,0.0022 0.311057,-0.0022 0.3425888,-0.0034 0.4144199,-0.02116 z m -4.1699157,0.543474 c -0.2666161,-0.02944 -0.4290569,-0.12281 -0.5094731,-0.292921 -0.029315,-0.06201 -0.056827,-0.175776 -0.066777,-0.276132 -0.012491,-0.125988 -0.012491,-2.936395 0,-3.062385 0.010293,-0.103422 0.038682,-0.218609 0.069598,-0.281984 0.011775,-0.02418 0.04672,-0.07164 0.077657,-0.105441 0.064349,-0.07051 0.137674,-0.114278 0.2393645,-0.143033 0.138976,-0.03928 0.1585469,-0.04007 1.0353165,-0.04007 h 0.8336636 l 0.040082,0.02329 c 0.047771,0.02776 0.08359,0.06727 0.1093557,0.12094 0.016531,0.03436 0.018895,0.05138 0.01886,0.135458 -3.26e-5,0.08395 -0.00246,0.101522 -0.019386,0.138737 -0.026059,0.05731 -0.075027,0.10667 -0.1268247,0.127858 -0.041448,0.0169 -0.063218,0.01746 -0.7257894,0.01757 -0.4090551,1.11e-4 -0.7055723,0.0034 -0.7391751,0.0089 -0.1116839,0.01735 -0.1634848,0.07007 -0.1799779,0.183229 -0.00493,0.03369 -0.00829,0.242183 -0.00829,0.513233 l -6.48e-5,0.456428 0.6713406,0.0022 0.6713397,0.0022 0.041179,0.02373 c 0.1419655,0.08159 0.1746357,0.316035 0.063935,0.458712 -0.011931,0.01533 -0.042264,0.03895 -0.067416,0.0525 l -0.045723,0.02452 -0.6673315,0.0022 -0.6673317,0.0022 6.39e-5,0.548144 c 4.04e-5,0.342137 0.00325,0.569478 0.00851,0.604926 0.014361,0.09649 0.052069,0.149046 0.1267574,0.17657 0.021726,0.0079 0.2288948,0.01187 0.8265914,0.01533 l 0.7975913,0.0045 0.046004,0.02462 c 0.1549538,0.08294 0.1820589,0.3495 0.048567,0.477605 -0.067561,0.06481 -0.014082,0.06156 -0.995823,0.0601 -0.4830656,-7.7e-4 -0.8909263,-0.0022 -0.9063569,-0.0045 z"
     id="path1479" />
</svg>
