<?xml version="1.0" encoding="UTF-8" standalone="no"?>
<svg
   version="1.1"
   id="svg2"
   width="1300"
   height="538.66669"
   viewBox="0 0 1300 538.66669"
   sodipodi:docname="suse-redhat.svg"
   inkscape:version="1.2.2 (b0a8486541, 2022-12-01)"
   xmlns:inkscape="http://www.inkscape.org/namespaces/inkscape"
   xmlns:sodipodi="http://sodipodi.sourceforge.net/DTD/sodipodi-0.dtd"
   xmlns="http://www.w3.org/2000/svg"
   xmlns:svg="http://www.w3.org/2000/svg"
   xmlns:rdf="http://www.w3.org/1999/02/22-rdf-syntax-ns#"
   xmlns:cc="http://creativecommons.org/ns#"
   xmlns:dc="http://purl.org/dc/elements/1.1/">
  <metadata
     id="metadata8">
    <rdf:RDF>
      <cc:Work
         rdf:about="">
        <dc:format>image/svg+xml</dc:format>
        <dc:type
           rdf:resource="http://purl.org/dc/dcmitype/StillImage" />
        <dc:title />
      </cc:Work>
    </rdf:RDF>
  </metadata>
  <defs
     id="defs6">
    <clipPath
       clipPathUnits="userSpaceOnUse"
       id="clipPath9430">
      <path
         d="M 0,600 H 600 V 0 H 0 Z"
         id="path9428"
         inkscape:connector-curvature="0" />
    </clipPath>
  </defs>
  <sodipodi:namedview
     pagecolor="#ffffff"
     bordercolor="#666666"
     borderopacity="1"
     objecttolerance="10"
     gridtolerance="10"
     guidetolerance="10"
     inkscape:pageopacity="0"
     inkscape:pageshadow="2"
     inkscape:window-width="3440"
     inkscape:window-height="1394"
     id="namedview4"
     showgrid="false"
     inkscape:zoom="0.9973237"
     inkscape:cx="229.61452"
     inkscape:cy="30.080504"
     inkscape:window-x="-6"
     inkscape:window-y="-6"
     inkscape:window-maximized="1"
     inkscape:current-layer="g10"
     inkscape:document-rotation="0"
     inkscape:showpageshadow="2"
     inkscape:pagecheckerboard="0"
     inkscape:deskcolor="#d1d1d1" />
  <g
     inkscape:groupmode="layer"
     inkscape:label="Image"
     id="g10">
    <path
       style="fill:#ffffff;stroke-width:1.33333"
       d="M 0,269.33334 V 0 h 800 800 V 269.33334 538.66669 H 800 0 Z M 417.93405,92.874805 C 298.7439,-7.310289 135.49975,3.6649018 53.006773,136.37291 16.02044,195.87352 5.782196,272.36397 25.617444,341.00001 l 2.793587,9.66667 h 14.914534 c 16.368348,0 30.20174,-2.78497 43.049328,-8.66679 8.395439,-3.84356 17.157177,-4.31308 23.583147,-1.26376 2.42635,1.15138 6.60042,5.32092 9.40886,9.39865 6.65844,9.66776 14.40147,14.24618 24.09314,14.24618 5.09981,0 8.02597,-0.70914 9.89116,-2.39712 4.18444,-3.78686 3.24452,-6.94148 -3.27779,-11.00105 -5.18936,-3.22995 -12.77541,-12.30996 -22.39972,-26.81103 -3.26452,-4.91868 -3.12188,-16.87365 0.26764,-22.43264 3.91814,-6.42593 8.74086,-8.996 16.66596,-8.88144 3.77555,0.0545 8.33344,0.85487 10.12867,1.77843 5.38596,2.77082 13.15964,10.89994 17.97367,18.79546 5.88229,9.64759 9.93056,11.63415 16.18654,7.94303 2.52427,-1.48936 5.70352,-2.70792 7.06499,-2.70792 1.46259,0 6.09128,4.33521 11.31284,10.59553 9.50701,11.3983 21.75855,21.47943 31.39267,25.8313 8.4424,3.81356 24.1653,4.42556 40,1.55697 39.36518,-12.59426 60.72869,-16.95464 93.25278,-30.0424 29.064,-10.67976 217.85732,-32.52859 46.0146,-233.733275 z M 1229.1366,414.18034 c 1.6263,-3.40898 1.5415,-4.19748 -0.789,-7.33334 -3.3525,-4.51096 -8.6604,-5.20086 -12.2668,-1.59442 -5.9033,5.90325 -2.0269,13.85764 6.4089,13.15137 3.798,-0.31797 5.2125,-1.21679 6.6469,-4.22361 z m -11.5366,1.55301 c -3.7419,-3.74188 -1.2905,-10.4 3.8291,-10.4 4.3859,0 7.2002,3.91687 5.8564,8.15084 -1.1063,3.48556 -2.4787,2.12583 -2.5576,-2.53403 -0.046,-2.71241 -0.8114,-3.72336 -3.0612,-4.04288 -2.6464,-0.37584 -3,0.15426 -3,4.49659 0,3.96696 0.3474,4.63436 1.7893,3.43764 1.768,-1.46729 3.544,-0.77536 3.544,1.38073 0,1.68042 -4.5806,1.33051 -6.4,-0.48889 z m -528.26667,-5.83549 c 12.40707,-3.71818 21.84927,-9.29626 29.02339,-17.14588 9.51012,-10.40559 12.72607,-19.28255 12.83141,-35.41863 0.0748,-11.46199 -0.30674,-13.49092 -4.01212,-21.33334 -6.81686,-14.42788 -19.034,-24.66501 -40.7798,-34.17073 -20.34221,-8.89217 -26.84065,-14.92728 -26.84065,-24.92697 0,-18.03529 23.15409,-23.72651 49.41825,-12.14689 3.8356,1.69107 7.21918,2.66291 7.51907,2.15964 0.29989,-0.50328 2.41869,-7.47529 4.70847,-15.49337 3.24061,-11.34761 3.79041,-14.82057 2.48093,-15.67145 -0.92525,-0.60122 -6.48228,-2.69651 -12.34895,-4.65619 -9.36304,-3.1276 -12.86654,-3.57515 -28.66666,-3.66188 -21.17063,-0.11627 -29.31667,1.94141 -42,10.609 -15.02736,10.26945 -23.33334,25.75453 -23.33334,43.50106 0,13.75196 3.84572,22.5439 14.55312,33.27077 7.57551,7.58928 11.48034,10.12333 28.12195,18.24984 23.35192,11.40332 28.06016,15.57686 29.03661,25.73891 0.89762,9.34172 -2.10064,14.84427 -10.24237,18.79733 -11.02855,5.35471 -30.08341,3.59023 -47.98707,-4.4436 -4.68476,-2.10217 -8.66642,-3.82213 -8.84814,-3.82213 -0.18174,0 -2.2492,6.92772 -4.5944,15.39492 -3.06598,11.06955 -3.86903,15.87081 -2.85826,17.08872 1.98086,2.38679 20.6124,8.64811 30.1519,10.13285 11.10524,1.72844 35.84424,0.59194 44.66666,-2.05198 z m 154.63624,-0.38658 c 9.88123,-3.8137 20.70654,-11.47717 25.99356,-18.40137 l 4.36446,-5.71596 0.82153,4.96971 c 0.45184,2.73333 0.82813,8.11969 0.8362,11.96969 l 0.0147,7 h 19.81511 19.8151 l -0.55054,-3 c -0.30279,-1.65 -0.66959,-42 -0.8151,-89.66667 L 914,230.00001 h -22 -22 l -0.66667,62 c -0.7102,66.04802 -0.44144,63.4491 -7.54582,72.97027 -10.13704,13.58551 -31.93118,15.69736 -42.72238,4.13982 -9.3569,-10.02139 -11.03989,-23.64413 -11.0542,-89.47645 L 808,229.26729 l -21.66667,0.36636 -21.66666,0.36636 v 62.66667 c 0,55.7832 0.26492,63.79558 2.41186,72.94419 2.82702,12.04659 8.32951,23.65988 14.782,31.19817 4.93967,5.77088 17.21095,13.01248 25.62979,15.12479 8.40116,2.10788 28.13684,0.79725 36.47925,-2.42255 z m 156.82933,0.0916 c 21.383,-6.65606 33.8678,-23.71252 33.8678,-46.26953 0,-16.90721 -6.6069,-29.72434 -20.8316,-40.41259 -3.7188,-2.79423 -13.91586,-8.78996 -22.66013,-13.32385 -23.82874,-12.35518 -29.84164,-19.3425 -29.84164,-34.6777 0,-10.64985 4.09896,-18.28093 12.66891,-23.58587 6.00952,-3.71998 7.35565,-3.999 19.22981,-3.98578 11.73395,0.0133 13.46005,0.36398 21.31425,4.33333 4.7005,2.37551 8.6479,4.31912 8.7721,4.31912 0.1241,0 1.6599,-3.06187 3.4127,-6.80415 3.1155,-6.65173 3.1298,-6.84584 0.641,-8.66574 -1.4003,-1.02388 -5.8818,-3.19676 -9.959,-4.82863 -10.0243,-4.01215 -34.88027,-4.34455 -44.05415,-0.58915 -18.7664,7.68218 -29.44592,23.0841 -29.51375,42.5645 -0.0705,20.27075 12.05964,34.33897 42.82147,49.66292 21.48593,10.70319 29.11333,19.35579 30.30653,34.37999 0.8563,10.78289 -1.3522,18.54957 -7.0763,24.88544 -11.91109,13.1842 -34.29321,15.15955 -55.58861,4.90603 l -9.02504,-4.34547 -3.1429,6.75047 c -3.6279,7.79213 -3.31879,8.35102 7.19298,13.00512 14.88558,6.59061 35.46304,7.66277 51.46557,2.68153 z m 152.2262,2.35683 c 11.9663,-1.50045 26.2051,-5.4612 30.2403,-8.41181 2.4927,-1.82272 2.4973,-2.03892 0.1707,-8.13103 -1.8575,-4.86367 -2.8782,-6.0564 -4.5798,-5.35159 -14.6909,6.0849 -16.8049,6.46592 -36.2503,6.53376 l -19.3941,0.0676 -10.3342,-5.10325 c -12.1314,-5.99077 -20.0499,-14.87337 -25.5851,-28.70015 -3.2512,-8.12122 -7.2681,-29.35927 -7.2847,-38.51561 l -0.01,-4.31899 57,-0.34764 57,-0.34765 -0.1571,-12.80926 c -0.4038,-32.94101 -13.5193,-59.02331 -34.9521,-69.50807 -8.6041,-4.20906 -9.4283,-4.3487 -25.5575,-4.3293 -15.8597,0.0191 -17.0862,0.21997 -25.3333,4.14944 -21.1671,10.08544 -34.0553,27.26837 -41.4686,55.28688 -4.3497,16.43995 -4.3775,47.97617 -0.056,63.21031 6.699,23.61344 18.8392,40.12276 36.2212,49.25676 14.8738,7.81595 29.5866,9.97036 50.3282,7.36959 z m -71.6918,-109.0129 c 0,-10.86117 10.3773,-34.356 19.1573,-43.37305 9.3558,-9.60855 16.1297,-12.23899 31.5094,-12.23574 14.4437,0.003 20.0949,2.15958 28.7844,10.98414 8.5077,8.6399 15.2156,27.12195 15.2156,41.92273 v 5.08846 h -47.3333 c -44.5925,0 -47.3334,-0.1382 -47.3334,-2.38654 z M 323,400.09716 c 3.79921,-4.04785 5,-6.44145 5,-9.96682 0,-6.44914 -2.16721,-7.13752 -7.17868,-2.28022 -5.28064,5.1182 -10.1736,5.3564 -17.48799,0.85135 -9.62125,-5.92589 -22,-3.37325 -22,4.53664 0,3.94217 3.86326,7.08532 7.56627,6.15592 2.12019,-0.53213 5.95152,0.57205 11.47499,3.30709 10.7834,5.33958 15.701,4.7736 22.62541,-2.60396 z"
       id="path847"
       sodipodi:nodetypes="ccccccccccsscssssssssscsssssscccsssssssssssssssssssssssssssssssssssssssscsscccsscccsssscccssssssssssscssssssssssscsssscsssscssccccssssscsccssssscssssssssss" />
    <path
       style="fill:#000000;stroke-width:1.33333"
       d="m 478.79609,287.71937 -189.37829,69.9985 c -40.05697,9.00403 -64.51753,-8.08939 -84.10715,-31.74636 -3.78048,-4.75099 -7.8011,-8.63816 -8.93474,-8.63816 -1.13363,0 -4.10051,1.26038 -6.59306,2.80086 -6.83381,4.22354 -10.07493,2.69364 -17.19744,-8.11765 -3.35998,-5.10013 -8.01624,-10.8812 -10.34724,-12.84681 -12.78704,-10.78266 -28.4727,-9.2171 -35.20494,3.51376 -5.12819,9.69756 -3.40342,19.24377 5.30702,29.37313 2.37952,2.76716 5.95632,7.46623 7.94844,10.44237 1.99211,2.97615 6.04211,6.93893 9,8.80615 9.6559,6.09551 -21.57984,21.32066 -34.32136,21.32066 -7.8027,0 11.88773,-13.64623 5.01557,-22.6258 -10.31347,-13.47619 -17.71797,-15.39485 -33.497801,-8.67991 -14.333538,6.09947 -23.019152,8.00037 -40.703942,8.90832 l -16.218844,0.83271 -2.639794,-8.54667 C 8.4382552,282.66939 13.86224,216.21445 41.982405,158.00001 69.820611,100.36927 120.67407,54.245737 181.33333,31.610231 c 26.92816,-10.048465 49.12222,-14.267597 80.11434,-15.229885 34.00562,-1.055856 59.46957,2.471812 88.97057,12.325606 54.38691,18.166075 100.97727,54.270866 132.81275,102.922098 z M 413.71628,147.05873 c -1.92153,4.1972 -8.19615,70.67173 -9.44523,72.06031 -3.08104,3.42514 -13.63846,10.62468 -14.42568,9.83745 -0.34864,-0.34864 1.72974,-5.35648 4.61862,-11.12852 6.43949,-12.86621 7.25525,-17.06593 5.47706,-28.19694 -2.69725,-16.88417 -16.07686,-54.0234 -28.04474,-77.84682 -11.75955,-23.408717 -19.41726,-32.510915 -32.44484,-38.564965 -15.98758,-7.429587 -33.99836,-7.953556 -54.7848,-1.593795 -15.91602,4.869616 -30.15978,5.348861 -50.68163,1.705231 -36.7556,-6.525914 -54.94163,0.406812 -61.93704,23.611115 -5.05824,16.778564 -12.0378,49.006424 -12.04292,55.607734 -0.0153,19.83577 22.44012,33.09888 74.82588,44.19512 29.16272,6.17719 39.52823,11.21444 42.90384,20.84968 1.10583,3.15645 3.06136,8.70383 4.34561,12.32748 1.28426,3.62365 4.69342,9.14703 7.5759,12.27416 2.88249,3.12712 4.86797,6.28907 4.41218,7.02655 -2.95717,4.7848 -20.90666,2.68517 -50.73516,-5.9347 -48.71968,-14.07908 -82.97789,-32.43854 -91.62986,-49.10576 -3.21947,-6.202 -3.77066,-17.0738 -1.117,-22.0322 0.89628,-1.67471 1.2693,-3.4052 0.82896,-3.84555 -0.44035,-0.44034 -9.63896,-0.81661 -20.44137,-0.83613 -13.99869,-0.0253 2.90946,-28.01899 -4.21792,-26.37306 -21.59973,4.98805 -10.09549,63.71734 -9.94547,78.21582 0.24216,23.40461 32.19432,-42.45326 90.44155,-13.32085 281.0242,174.15469 91.37781,-27.08416 206.46406,-58.93136 z m -209.75293,0.008 c -1.81318,-1.24648 -4.17756,-3.48476 -5.25419,-4.97394 -1.07663,-1.48919 -4.56599,-5.13714 -7.75413,-8.10655 -7.29919,-6.79841 -8.85838,-13.89407 -4.31855,-19.65316 3.83112,-4.86004 7.31411,-4.6239 13.44088,0.91127 7.04695,6.36649 11.61464,7.31429 28.03253,5.81677 7.63956,-0.69683 17.00983,-0.88131 20.82283,-0.40996 6.75525,0.83505 15.00368,5.08261 16.04728,8.26361 1.02943,3.13781 -6.09896,5.89126 -18.51545,7.15187 -19.99823,2.03036 -25.83898,3.62125 -31.90672,8.69071 -6.34654,5.30238 -6.26627,5.28488 -10.59448,2.30938 z m 100.70332,-41.29972 c -6.32586,-1.39975 -6.5028,-2.09197 -0.96478,-3.77446 C 315.34667,98.454792 319.48005,92.713168 313,89.076697 311.35,88.150752 303.7,87.068684 296,86.6721 l -14,-0.72106 7.33333,-2.367975 c 23.59011,-7.617382 54.49663,-1.374097 53.08694,10.723844 -0.98084,8.417461 -22.28227,14.883511 -37.7536,11.460101 z m 331.79808,303.59008 c -5.2444,-1.37691 -12.49835,-3.77816 -16.1199,-5.33611 l -6.58462,-2.83264 4.02568,-14.92762 c 2.21412,-8.21019 4.10044,-15.06 4.19182,-15.22179 0.0913,-0.16179 4.35691,1.41129 9.47896,3.49572 21.79496,8.86953 43.10959,9.25523 52.33666,0.94708 8.9423,-8.05176 9.12866,-20.04949 0.45516,-29.30358 -1.97002,-2.10188 -11.98184,-7.88828 -22.24851,-12.85866 -14.56849,-7.05303 -20.6182,-10.82807 -27.55567,-17.19482 -18.00852,-16.52704 -21.45793,-35.78402 -10.44092,-58.28836 6.67231,-13.62948 21.07674,-24.28565 38.66326,-28.60248 9.50929,-2.33417 27.69258,-2.33008 38.66666,0.009 9.39839,2.00296 22.67595,7.28856 22.65147,9.0172 -0.0219,1.53984 -7.88379,27.4168 -8.52447,28.05748 -0.29438,0.29439 -2.87326,-0.6575 -5.73085,-2.11534 -7.3592,-3.75438 -25.14291,-7.19556 -31.67733,-6.12963 -13.16932,2.14825 -20.31618,10.08068 -19.06704,21.1629 1.03018,9.1398 5.2003,12.66138 28.73882,24.26941 16.55292,8.16308 21.91924,11.52971 27.88103,17.49149 10.16337,10.16336 14.09792,19.156 14.81327,33.85653 1.23869,25.4555 -11.05404,43.20068 -36.57923,52.80396 -8.06275,3.03344 -11.51109,3.49645 -28.50567,3.82748 -15.53258,0.30256 -21.20788,-0.1156 -28.86858,-2.1269 z m 168.77438,0.81951 c -17.9683,-4.84478 -29.87409,-18.32248 -36.66877,-41.51018 -2.05757,-7.0217 -2.4104,-15.94866 -2.88523,-73 l -0.54098,-65 H 786.57207 808 l 0.1096,56.33333 c 0.0603,30.98334 0.37903,58.13334 0.70827,60.33334 1.94318,12.98444 8.10681,23.04357 16.85406,27.50609 8.03747,4.10042 21.11759,3.04223 29.17822,-2.36052 6.60801,-4.42912 13.71113,-15.25141 14.95676,-22.78808 0.4567,-2.76329 0.83697,-30.67416 0.84504,-62.02416 l 0.0147,-57 H 892 913.33333 l 0.009,80.33333 c 0.005,44.18334 0.39197,84.38334 0.85946,89.33334 l 0.85,9 h -18.73504 -18.73504 l -0.94965,-12.66667 c -0.52232,-6.96666 -1.37692,-12.66666 -1.89913,-12.66666 -0.52222,0 -1.78892,1.56853 -2.81492,3.48562 -4.67914,8.74306 -21.77658,20.11303 -34.73804,23.10119 -7.88867,1.81865 -24.46484,1.60591 -31.94132,-0.40997 z m 155.79108,-0.25015 C 953.95676,408.21204 940,402.07536 940,400.6799 c 0,-0.33471 1.28215,-3.2476 2.84923,-6.47311 l 2.84922,-5.86456 10.15078,4.80829 c 9.73869,4.6131 10.74618,4.8086 24.81744,4.816 15.69394,0.008 18.659,-0.87213 27.23193,-8.08581 7.0543,-5.93581 9.9613,-13.09944 9.9613,-24.54736 0,-17.75572 -7.7245,-26.87295 -34.81511,-41.09196 -18.48016,-9.69968 -28.80675,-18.24136 -34.33675,-28.40182 -3.36163,-6.1764 -3.89544,-8.59617 -3.93263,-17.82634 -0.0485,-12.05687 3.41411,-21.58054 10.97911,-30.19659 10.01185,-11.40287 29.92188,-17.41768 48.00118,-14.50118 10.8142,1.74452 24.2443,6.91339 24.2443,9.33096 0,2.37442 -5.3946,12.23748 -6.4049,11.71023 -13.9603,-7.28555 -17.1549,-8.21823 -28.26177,-8.25092 -12.40146,-0.0365 -18.38676,1.97801 -24.73357,8.32483 -5.08337,5.08336 -7.38999,10.23313 -8.23031,18.37503 -1.65073,15.99409 6.14424,25.05316 34.29887,39.86109 29.72198,15.63231 38.90618,27.5926 38.90618,50.66667 0,19.15844 -8.1172,33.34489 -23.8133,41.61889 -13.40485,7.0662 -32.19101,8.9839 -48.73099,4.97447 z m 157.99929,0.15749 c -24.4423,-5.92269 -42.1654,-24.02501 -50.9931,-52.08418 -3.6134,-11.4854 -5.0612,-37.71737 -2.9436,-53.33334 5.3967,-39.79871 27.7445,-66.7695 59.2013,-71.44811 40.7437,-6.05988 69.0278,24.98132 69.0374,75.76712 v 9.65236 l -57,0.34764 -57,0.34766 0.4294,9.33333 c 1.5549,33.80136 14.8391,57.11219 37.8327,66.38798 6.0602,2.4447 9.645,2.84037 25.0713,2.76714 16.0746,-0.0763 19.0156,-0.46356 27.4946,-3.62028 5.2221,-1.94416 9.8134,-3.53484 10.2029,-3.53484 0.8452,0 3.6358,7.70207 3.6358,10.03478 0,2.51669 -12.3203,7.24486 -24.4326,9.37649 -13.1316,2.31104 -31.0148,2.3138 -40.5379,0.007 z m 57.8181,-105.40813 c 0.4201,-1.09484 0.044,-7.06458 -0.8367,-13.26607 -2.825,-19.90129 -11.8778,-34.4364 -26.0109,-41.76308 -5.5913,-2.89852 -8.4949,-3.46767 -18,-3.52826 -9.5397,-0.0608 -12.5267,0.48358 -18.8738,3.43971 -8.254,3.8442 -16.8501,11.88725 -21.8826,20.47452 -5.6525,9.64519 -12.3819,32.37998 -10.4903,35.44062 0.4114,0.66572 21.645,1.19317 48.0339,1.19317 40.7122,0 47.4028,-0.27712 48.0604,-1.99061 z M 301.33333,402.3953 c -2.56666,-1.61044 -7.66666,-3.2582 -11.33333,-3.66168 -6.10759,-0.67208 -6.70271,-1.04786 -7.09635,-4.4809 -0.55613,-4.85014 1.58634,-7.30698 7.30804,-8.38038 3.65483,-0.68566 6.25647,-0.003 12.55218,3.29804 4.36798,2.28964 9.11213,4.16297 10.54256,4.16297 1.43042,0 4.70378,-1.84645 7.27412,-4.10324 2.57033,-2.25679 5.29121,-3.72137 6.04638,-3.25464 2.16266,1.33657 1.60116,6.30077 -1.23962,10.95981 -5.10028,8.36475 -15.61914,10.75243 -24.05398,5.46002 z"
       id="path841"
       sodipodi:nodetypes="cccsssssssssssscssssscccssssssssscssssssssssssccssssssssssssssscssscscssssssssscsssssssssscccsscccsssssscccsscccsssscccsscscsssssssssssssssscsssccccsssssssccssssssssssssscssssss" />
    <g
       id="g9424"
       transform="matrix(0.7798084,0,0,-0.7798084,74.456597,491.05325)">
      <g
         id="g9426"
         clip-path="url(#clipPath9430)">
        <path
           d="m 245.685,563.813 c 9.09,0 16.505,4.357 16.505,9.698 0,5.341 -7.415,9.697 -16.505,9.697 -9.092,0 -16.506,-4.356 -16.506,-9.697 0,-5.341 7.414,-9.698 16.506,-9.698"
           style="fill:#17821b;fill-opacity:1;fill-rule:evenodd;stroke:none"
           id="path9432"
           inkscape:connector-curvature="0" />
        <path
           d="m 586.048,327.746 c 33.424,-50.617 -113.066,-8.803 -189.405,-33.836 29.847,14.442 84.454,39.613 114.302,54.055 z"
           style="fill:#1b9f20;fill-opacity:1;fill-rule:evenodd;stroke:none"
           id="path9434"
           inkscape:connector-curvature="0" />
        <path
           d="m 35.879,300.184 c 143.995,-26.658 285.14,45.952 411.804,67.16 -8.366,122.68 -89.43,197.221 -201.484,206.785 C 78.798,563.893 33.533,451.876 35.879,300.184"
           style="fill:#1db723;fill-opacity:1;fill-rule:evenodd;stroke:none"
           id="path9436"
           inkscape:connector-curvature="0" />
        <path
           d="m 35.879,300.184 c 42.742,-7.913 85.233,-7.08 127.168,-1.442 -7.21,109.988 -16.854,221.242 83.152,275.387 C 78.798,563.893 33.533,451.876 35.879,300.184"
           style="fill:#1ced24;fill-opacity:1;fill-rule:evenodd;stroke:none"
           id="path9438"
           inkscape:connector-curvature="0" />
        <path
           d="M 244.07,572.958 C 152.803,523.042 150.537,392.137 162.39,308.72 c -6.925,119.001 14.831,223.416 81.68,264.238"
           style="fill:#52f269;fill-opacity:1;fill-rule:evenodd;stroke:none"
           id="path9440"
           inkscape:connector-curvature="0" />
        <path
           d="m 162.39,308.72 c -8.961,96.337 -7.964,198.083 66.321,253.039 4.768,4.107 9.876,7.851 15.359,11.199 C 145.861,526.695 146.92,394.041 162.39,308.72"
           style="fill:#1ed725;fill-opacity:1;fill-rule:evenodd;stroke:none"
           id="path9442"
           inkscape:connector-curvature="0" />
        <path
           d="m 256.546,570.338 c 96.134,-38.594 101.075,-135.393 97.353,-199.889 -4.675,92.009 -26.524,168.325 -97.353,199.889"
           style="fill:#1edc25;fill-opacity:1;fill-rule:evenodd;stroke:none"
           id="path9444"
           inkscape:connector-curvature="0" />
        <path
           d="m 163.047,298.742 c 66.175,-17.29 130.397,-57.942 198.523,-51.874 90.575,8.07 128.195,101.236 224.478,80.878 L 447.683,367.344 C 369.311,397.296 257.925,321.61 163.047,298.742"
           style="fill:#1ced24;fill-opacity:1;fill-rule:evenodd;stroke:none"
           id="path9446"
           inkscape:connector-curvature="0" />
        <path
           d="m 440.677,369.71 c -72.998,21.709 -172.091,-40.077 -260.039,-66.21 86.679,22.07 184.088,77.564 260.039,66.21"
           style="fill:#1b9f20;fill-opacity:1;fill-rule:evenodd;stroke:none"
           id="path9448"
           inkscape:connector-curvature="0" />
      </g>
    </g>
  </g>
</svg>
